<svg width="85" height="25" viewBox="0 0 85 25" fill="none" xmlns="http://www.w3.org/2000/svg">
<path d="M19.9375 24H0.84375C1.0625 22.1146 1.72396 20.3438 2.82812 18.6875C3.94271 17.0208 6.02604 15.0573 9.07812 12.7969C10.9427 11.4115 12.1354 10.3594 12.6562 9.64062C13.1771 8.92188 13.4375 8.23958 13.4375 7.59375C13.4375 6.89583 13.1771 6.30208 12.6562 5.8125C12.1458 5.3125 11.5 5.0625 10.7188 5.0625C9.90625 5.0625 9.23958 5.31771 8.71875 5.82812C8.20833 6.33854 7.86458 7.23958 7.6875 8.53125L1.3125 8.01562C1.5625 6.22396 2.02083 4.82812 2.6875 3.82812C3.35417 2.81771 4.29167 2.04688 5.5 1.51562C6.71875 0.973958 8.40104 0.703125 10.5469 0.703125C12.7865 0.703125 14.526 0.958333 15.7656 1.46875C17.0156 1.97917 17.9948 2.76562 18.7031 3.82812C19.4219 4.88021 19.7812 6.0625 19.7812 7.375C19.7812 8.77083 19.3698 10.1042 18.5469 11.375C17.7344 12.6458 16.25 14.0417 14.0938 15.5625C12.8125 16.4479 11.9531 17.0677 11.5156 17.4219C11.0885 17.776 10.5833 18.2396 10 18.8125H19.9375V24ZM22.6562 12.4531C22.6562 8.09896 23.4375 5.05208 25 3.3125C26.5729 1.57292 28.9635 0.703125 32.1719 0.703125C33.7135 0.703125 34.9792 0.895833 35.9688 1.28125C36.9583 1.65625 37.7656 2.15104 38.3906 2.76562C39.0156 3.36979 39.5052 4.01042 39.8594 4.6875C40.224 5.35417 40.5156 6.13542 40.7344 7.03125C41.1615 8.73958 41.375 10.5208 41.375 12.375C41.375 16.5312 40.6719 19.5729 39.2656 21.5C37.8594 23.4271 35.4375 24.3906 32 24.3906C30.0729 24.3906 28.5156 24.0833 27.3281 23.4688C26.1406 22.8542 25.1667 21.9531 24.4062 20.7656C23.8542 19.9219 23.4219 18.7708 23.1094 17.3125C22.8073 15.8438 22.6562 14.224 22.6562 12.4531ZM28.9688 12.4688C28.9688 15.3854 29.224 17.3802 29.7344 18.4531C30.2552 19.5156 31.0052 20.0469 31.9844 20.0469C32.6302 20.0469 33.1875 19.8229 33.6562 19.375C34.1354 18.9167 34.4844 18.1979 34.7031 17.2188C34.9323 16.2396 35.0469 14.7135 35.0469 12.6406C35.0469 9.59896 34.7865 7.55729 34.2656 6.51562C33.7552 5.46354 32.9844 4.9375 31.9531 4.9375C30.901 4.9375 30.1406 5.47396 29.6719 6.54688C29.2031 7.60938 28.9688 9.58333 28.9688 12.4688ZM62.625 24H43.5312C43.75 22.1146 44.4115 20.3438 45.5156 18.6875C46.6302 17.0208 48.7135 15.0573 51.7656 12.7969C53.6302 11.4115 54.8229 10.3594 55.3438 9.64062C55.8646 8.92188 56.125 8.23958 56.125 7.59375C56.125 6.89583 55.8646 6.30208 55.3438 5.8125C54.8333 5.3125 54.1875 5.0625 53.4062 5.0625C52.5938 5.0625 51.9271 5.31771 51.4062 5.82812C50.8958 6.33854 50.5521 7.23958 50.375 8.53125L44 8.01562C44.25 6.22396 44.7083 4.82812 45.375 3.82812C46.0417 2.81771 46.9792 2.04688 48.1875 1.51562C49.4062 0.973958 51.0885 0.703125 53.2344 0.703125C55.474 0.703125 57.2135 0.958333 58.4531 1.46875C59.7031 1.97917 60.6823 2.76562 61.3906 3.82812C62.1094 4.88021 62.4688 6.0625 62.4688 7.375C62.4688 8.77083 62.0573 10.1042 61.2344 11.375C60.4219 12.6458 58.9375 14.0417 56.7812 15.5625C55.5 16.4479 54.6406 17.0677 54.2031 17.4219C53.776 17.776 53.2708 18.2396 52.6875 18.8125H62.625V24ZM67.9219 1.09375H83.0312V6.17188H72.7969L72.25 9.60938C72.9583 9.27604 73.6562 9.02604 74.3438 8.85938C75.0417 8.69271 75.7292 8.60938 76.4062 8.60938C78.6979 8.60938 80.5573 9.30208 81.9844 10.6875C83.4115 12.0729 84.125 13.8177 84.125 15.9219C84.125 17.401 83.7552 18.8229 83.0156 20.1875C82.2865 21.5521 81.2448 22.5938 79.8906 23.3125C78.5469 24.0312 76.8229 24.3906 74.7188 24.3906C73.2083 24.3906 71.9115 24.25 70.8281 23.9688C69.7552 23.6771 68.8385 23.25 68.0781 22.6875C67.3281 22.1146 66.7188 21.4688 66.25 20.75C65.7812 20.0312 65.3906 19.1354 65.0781 18.0625L71.5156 17.3594C71.6719 18.3906 72.0365 19.1771 72.6094 19.7188C73.1823 20.25 73.8646 20.5156 74.6562 20.5156C75.5417 20.5156 76.2708 20.1823 76.8438 19.5156C77.4271 18.8385 77.7188 17.8333 77.7188 16.5C77.7188 15.1354 77.4271 14.1354 76.8438 13.5C76.2604 12.8646 75.4844 12.5469 74.5156 12.5469C73.901 12.5469 73.3073 12.6979 72.7344 13C72.3073 13.2188 71.8385 13.6146 71.3281 14.1875L65.9062 13.4062L67.9219 1.09375Z" fill="white"/>
</svg>
