<svg width="148" height="23" viewBox="0 0 148 23" fill="none" xmlns="http://www.w3.org/2000/svg">
<path d="M143.551 1.08C144.019 1.968 144.674 3.48 145.03 4.368L143.532 5.208C143.139 4.224 142.558 2.784 142.053 1.872L143.551 1.08ZM145.76 0C146.247 0.912 146.94 2.424 147.277 3.264L145.779 4.08C145.386 3.096 144.786 1.68 144.281 0.792L145.76 0ZM145.217 6.36C145.011 6.84 144.749 7.488 144.599 8.088C144.094 10.224 143.027 13.44 141.342 16.104C139.563 18.888 137.297 21.096 133.778 22.872L131.568 20.352C135.406 18.864 137.485 16.776 139.114 14.4C140.387 12.528 141.473 9.648 141.772 7.872H135.463L136.324 5.136C137.166 5.136 141.079 5.136 141.679 5.136C142.259 5.136 142.877 5.04 143.307 4.848L145.217 6.36ZM139.114 2.568C138.683 3.408 138.196 4.512 137.971 5.016C136.717 7.92 134.47 11.304 131.793 13.656L129.677 11.664C132.972 9.096 134.601 6 135.537 3.936C135.818 3.36 136.211 2.232 136.38 1.416L139.114 2.568Z" fill="white"/>
<path d="M119.679 6.50403C120.035 7.51203 120.952 10.656 121.215 11.76L118.987 12.744C118.743 11.592 117.919 8.68803 117.47 7.44003L119.679 6.50403ZM126.588 8.23203C126.382 9.02403 126.27 9.52803 126.157 10.008C125.671 12.432 124.866 14.928 123.592 17.016C121.851 19.92 119.53 21.912 117.339 22.992L115.373 20.424C117.414 19.704 120.035 17.88 121.57 15.384C122.843 13.368 123.761 10.176 123.967 7.15203L126.588 8.23203ZM115.336 7.75203C115.804 8.97603 116.721 11.904 117.077 13.248L114.793 14.328C114.493 13.056 113.538 9.84003 113.089 8.80803L115.336 7.75203Z" fill="white"/>
<path d="M94.1041 3.98401C94.5909 4.08001 95.3773 4.15201 95.8828 4.15201H106.087C106.648 4.15201 107.304 4.08001 107.828 3.98401V7.29601C107.285 7.22401 106.63 7.17601 106.087 7.17601H95.8828C95.3773 7.17601 94.5909 7.22401 94.1041 7.29601V3.98401ZM99.515 18.768V5.83201H102.117V18.768H99.515ZM92.9059 16.8C93.505 16.92 94.179 16.992 94.7407 16.992H107.098C107.753 16.992 108.352 16.872 108.839 16.8V20.256C108.315 20.184 107.528 20.16 107.098 20.16H94.7407C94.1978 20.16 93.5237 20.184 92.9059 20.256V16.8Z" fill="white"/>
<path d="M74.5013 9.62402C75.1941 9.69602 76.5421 9.79202 77.5157 9.79202C79.725 9.79202 85.9035 9.79202 87.5698 9.79202C88.4498 9.79202 89.2736 9.67202 89.7791 9.62402V13.416C89.3298 13.392 88.3749 13.272 87.5885 13.272C85.8848 13.272 79.725 13.272 77.5157 13.272C76.4672 13.272 75.2128 13.344 74.5013 13.416V9.62402Z" fill="white"/>
<path d="M62.0882 9.50395C64.3911 11.2079 67.8548 14.2799 69.596 16.0559L67.7986 18.792C66.1698 16.824 62.6124 13.4639 60.4219 11.6879L62.0882 9.50395ZM70.9066 5.42395C70.6819 5.87995 70.4386 6.55195 70.27 7.15195C69.7084 9.35995 68.5663 12.432 66.8812 15.096C65.1213 17.904 62.7248 20.592 59.1487 22.32L56.9769 19.9199C60.89 18.3599 63.118 15.8399 64.7281 13.4399C65.9825 11.5439 67.1433 8.78395 67.4991 6.91195H61.1708L62.032 4.19995H67.368C67.9484 4.19995 68.5663 4.07995 68.9969 3.91195L70.9066 5.42395ZM64.7094 1.72795C64.26 2.56795 63.7733 3.67195 63.5486 4.17595C62.2942 7.07995 59.8977 10.7519 57.2016 13.1279L55.1982 11.1359C58.4747 8.54395 60.1972 5.25595 61.1521 3.16795C61.4329 2.59195 61.8261 1.48795 61.9946 0.647949L64.7094 1.72795Z" fill="white"/>
<path d="M50.9482 4.48793C50.7985 4.75193 50.4615 5.47193 50.2929 5.97593C49.5253 8.25593 48.1398 11.5199 46.5297 13.9199C44.4327 17.0159 41.6056 19.9919 38.7036 21.7439L36.7564 19.1519C39.7895 17.7119 42.6728 14.7839 44.4327 12.2879C45.6684 10.4879 46.8105 8.11193 47.2411 6.40793C46.4548 6.40793 41.6805 6.40793 40.8754 6.40793C40.1078 6.40793 39.078 6.52793 38.6661 6.57593V3.14393C39.1716 3.23993 40.3325 3.31193 40.8754 3.31193C41.8677 3.31193 46.6607 3.31193 47.4845 3.31193C48.3083 3.31193 49.0385 3.19193 49.4317 3.02393L50.9482 4.48793ZM46.7731 11.9279C48.7015 13.9439 51.3601 17.5199 52.5771 19.4399L50.4427 21.8159C49.0573 19.3439 47.0165 16.4879 45.0131 14.1599L46.7731 11.9279Z" fill="white"/>
<path d="M19.2656 9.62402C19.9584 9.69602 21.3064 9.79202 22.28 9.79202C24.4893 9.79202 30.6678 9.79202 32.3341 9.79202C33.2141 9.79202 34.0379 9.67202 34.5434 9.62402V13.416C34.094 13.392 33.1392 13.272 32.3528 13.272C30.6491 13.272 24.4893 13.272 22.28 13.272C21.2315 13.272 19.9771 13.344 19.2656 13.416V9.62402Z" fill="white"/>
<path d="M0 11.424C3.35137 10.32 6.08489 8.76002 8.18184 7.10402C10.0916 5.59202 12.2259 3.19202 13.4429 1.29602L15.465 3.74402C13.7612 5.95202 11.477 8.20802 9.26776 9.91202C7.15209 11.52 4.119 13.32 1.16081 14.448L0 11.424ZM7.78866 8.66402L10.4473 7.84802V18.672C10.4473 19.728 10.4847 21.216 10.6158 21.816H7.63888C7.71377 21.24 7.78866 19.728 7.78866 18.672V8.66402Z" fill="white"/>
</svg>
