<svg width="148" height="150" viewBox="0 0 148 150" fill="none" xmlns="http://www.w3.org/2000/svg">
<path d="M73.5621 3.6272C90.2012 8.88164 104.213 24.2071 106.402 74.5621M73.5621 3.6272V74.5621M73.5621 3.6272C85.6188 7.43458 96.2961 16.5297 102.096 40.4083M73.5621 3.6272V40.4083M106.402 74.5621C108.154 114.846 85.2387 138.929 73.5621 145.935V74.5621M106.402 74.5621H73.5621M106.402 74.5621C105.799 60.6945 104.3 49.4837 102.096 40.4083M146.249 76.3136L73.5621 74.5621M1.75148 74.5621H73.5621M10.9467 40.4083H73.5621M73.5621 40.4083H138.367H102.096M73.5621 40.4083V74.5621M73.5621 40.4083H102.096M138.367 106.089H10.9467" stroke="#2082FF" stroke-width="4"/>
<path d="M73.7323 145.842C57.0732 140.652 43.0028 125.38 40.6205 75.0337M73.7323 145.842L73.4605 74.9079M73.7323 145.842C61.6611 142.081 50.949 133.027 45.0581 109.171M73.7323 145.842L73.5914 109.061M40.6205 75.0337C38.7147 34.7567 61.5375 10.5862 73.1871 3.53562L73.4605 74.9079M40.6205 75.0337L73.4605 74.9079M40.6205 75.0337C41.2766 88.8989 42.8191 100.104 45.0581 109.171M0.767972 73.4349L73.4605 74.9079M145.271 74.6327L73.4605 74.9079M136.206 108.822L73.5914 109.061M73.5914 109.061L8.78713 109.31L45.0581 109.171M73.5914 109.061L73.4605 74.9079M73.5914 109.061L45.0581 109.171M8.53549 43.6298L135.955 43.1416" stroke="#2082FF" stroke-width="4"/>
<circle cx="74" cy="75" r="71.5" stroke="#2082FF" stroke-width="5"/>
</svg>
