<svg width="1446" height="185" viewBox="0 0 1446 185" fill="none" xmlns="http://www.w3.org/2000/svg">
<circle cx="27.5" cy="27.5" r="26" fill="#E5E3D7" stroke="white" stroke-width="3"/>
<line x1="2.5" y1="129" x2="2.5" y2="174" stroke="white" stroke-width="5"/>
<line x1="1" y1="171.5" x2="46" y2="171.5" stroke="white" stroke-width="5"/>
<mask id="path-4-outside-1_108_2722" maskUnits="userSpaceOnUse" x="8" y="18" width="38" height="22" fill="black">
<rect fill="white" x="8" y="18" width="38" height="22"/>
<path d="M10.1591 22.4205V20.5455H23.25V22.4205H17.7614V38H15.6477V22.4205H10.1591ZM26.5121 20.5455H29.0348L34.9666 35.0341H35.1712L41.103 20.5455H43.6257V38H41.6484V24.7386H41.478L36.0234 38H34.1143L28.6598 24.7386H28.4893V38H26.5121V20.5455Z"/>
</mask>
<path d="M10.1591 22.4205V20.5455H23.25V22.4205H17.7614V38H15.6477V22.4205H10.1591ZM26.5121 20.5455H29.0348L34.9666 35.0341H35.1712L41.103 20.5455H43.6257V38H41.6484V24.7386H41.478L36.0234 38H34.1143L28.6598 24.7386H28.4893V38H26.5121V20.5455Z" fill="white"/>
<path d="M10.1591 22.4205H8.15909V24.4205H10.1591V22.4205ZM10.1591 20.5455V18.5455H8.15909V20.5455H10.1591ZM23.25 20.5455H25.25V18.5455H23.25V20.5455ZM23.25 22.4205V24.4205H25.25V22.4205H23.25ZM17.7614 22.4205V20.4205H15.7614V22.4205H17.7614ZM17.7614 38V40H19.7614V38H17.7614ZM15.6477 38H13.6477V40H15.6477V38ZM15.6477 22.4205H17.6477V20.4205H15.6477V22.4205ZM12.1591 22.4205V20.5455H8.15909V22.4205H12.1591ZM10.1591 22.5455H23.25V18.5455H10.1591V22.5455ZM21.25 20.5455V22.4205H25.25V20.5455H21.25ZM23.25 20.4205H17.7614V24.4205H23.25V20.4205ZM15.7614 22.4205V38H19.7614V22.4205H15.7614ZM17.7614 36H15.6477V40H17.7614V36ZM17.6477 38V22.4205H13.6477V38H17.6477ZM15.6477 20.4205H10.1591V24.4205H15.6477V20.4205ZM26.5121 20.5455V18.5455H24.5121V20.5455H26.5121ZM29.0348 20.5455L30.8857 19.7877L30.3771 18.5455H29.0348V20.5455ZM34.9666 35.0341L33.1157 35.7919L33.6243 37.0341H34.9666V35.0341ZM35.1712 35.0341V37.0341H36.5135L37.0221 35.7919L35.1712 35.0341ZM41.103 20.5455V18.5455H39.7607L39.2521 19.7877L41.103 20.5455ZM43.6257 20.5455H45.6257V18.5455H43.6257V20.5455ZM43.6257 38V40H45.6257V38H43.6257ZM41.6484 38H39.6484V40H41.6484V38ZM41.6484 24.7386H43.6484V22.7386H41.6484V24.7386ZM41.478 24.7386V22.7386H40.138L39.6283 23.9779L41.478 24.7386ZM36.0234 38V40H37.3634L37.8731 38.7608L36.0234 38ZM34.1143 38L32.2647 38.7608L32.7744 40H34.1143V38ZM28.6598 24.7386L30.5095 23.9779L29.9997 22.7386H28.6598V24.7386ZM28.4893 24.7386V22.7386H26.4893V24.7386H28.4893ZM28.4893 38V40H30.4893V38H28.4893ZM26.5121 38H24.5121V40H26.5121V38ZM26.5121 22.5455H29.0348V18.5455H26.5121V22.5455ZM27.1839 21.3032L33.1157 35.7919L36.8175 34.2763L30.8857 19.7877L27.1839 21.3032ZM34.9666 37.0341H35.1712V33.0341H34.9666V37.0341ZM37.0221 35.7919L42.9539 21.3032L39.2521 19.7877L33.3203 34.2763L37.0221 35.7919ZM41.103 22.5455H43.6257V18.5455H41.103V22.5455ZM41.6257 20.5455V38H45.6257V20.5455H41.6257ZM43.6257 36H41.6484V40H43.6257V36ZM43.6484 38V24.7386H39.6484V38H43.6484ZM41.6484 22.7386H41.478V26.7386H41.6484V22.7386ZM39.6283 23.9779L34.1738 37.2392L37.8731 38.7608L43.3276 25.4994L39.6283 23.9779ZM36.0234 36H34.1143V40H36.0234V36ZM35.964 37.2392L30.5095 23.9779L26.8101 25.4994L32.2647 38.7608L35.964 37.2392ZM28.6598 22.7386H28.4893V26.7386H28.6598V22.7386ZM26.4893 24.7386V38H30.4893V24.7386H26.4893ZM28.4893 36H26.5121V40H28.4893V36ZM28.5121 38V20.5455H24.5121V38H28.5121Z" fill="#FFD95F" mask="url(#path-4-outside-1_108_2722)"/>
<path d="M1306.69 90.9986C1307.75 85.3813 1308.28 81.2561 1308.28 78.623C1308.28 74.059 1306.9 70.636 1304.15 68.354C1301.6 65.8964 1297.04 64.6676 1290.47 64.6676H1287.29L1288.88 56.7683H1320.37C1327.58 56.7683 1333.09 57.5583 1336.91 59.1381C1340.72 60.5424 1343.48 63 1345.18 66.5108C1356.84 58.2604 1373.17 54.1353 1394.16 54.1353C1411.54 54.1353 1424.48 56.9439 1432.96 62.5612C1441.65 68.1784 1446 76.9554 1446 88.8921C1446 92.4029 1445.47 96.9669 1444.41 102.584L1427.87 180.524H1386.52L1403.06 102.321C1403.91 98.8101 1404.33 94.7727 1404.33 90.2086C1404.33 74.9367 1396.28 67.3007 1380.16 67.3007C1373.59 67.3007 1367.65 68.0906 1362.35 69.6705C1357.05 71.0748 1352.7 73.0058 1349.31 75.4633C1349.52 76.6921 1349.63 78.4475 1349.63 80.7295C1349.63 83.8892 1349.31 86.7856 1348.67 89.4187L1329.27 180.524H1287.93L1306.69 90.9986Z" fill="#2082FF"/>
<path d="M1185.25 183.157C1166.17 183.157 1151.22 178.505 1140.41 169.201C1129.59 159.898 1124.19 147.698 1124.19 132.601C1124.19 119.085 1127.79 106.358 1135 94.4216C1142.42 82.3094 1152.81 72.5669 1166.17 65.1942C1179.74 57.8216 1195.22 54.1353 1212.61 54.1353C1231.48 54.1353 1246.11 57.0317 1256.5 62.8245C1266.89 68.4417 1272.08 76.2532 1272.08 86.259C1272.08 100.302 1264.98 110.747 1250.77 117.593C1236.57 124.439 1219.71 127.862 1200.2 127.862H1166.81C1165.53 133.304 1164.9 138.219 1164.9 142.607C1164.9 152.086 1167.34 159.283 1172.21 164.199C1177.09 168.938 1183.88 171.308 1192.57 171.308C1202.75 171.308 1211.65 169.465 1219.29 165.778C1226.92 161.917 1234.66 156.475 1242.5 149.453L1251.09 155.509C1243.25 163.409 1234.13 169.991 1223.74 175.258C1213.56 180.524 1200.73 183.157 1185.25 183.157ZM1202.75 116.013C1210.59 116.013 1216.95 112.765 1221.83 106.271C1226.71 99.7755 1229.15 92.754 1229.15 85.2058C1229.15 78.8863 1227.24 74.1468 1223.42 70.9871C1219.82 67.6518 1215.36 65.9842 1210.06 65.9842C1189.71 65.9842 1176.14 82.6604 1169.35 116.013H1202.75Z" fill="#2082FF"/>
<path d="M1090.32 42.5495C1083.75 42.5495 1078.76 41.0575 1075.37 38.0733C1071.98 35.0891 1070.28 31.315 1070.28 26.751C1070.28 21.6603 1072.19 17.2719 1076.01 13.5855C1080.04 9.72366 1085.12 7.79272 1091.27 7.79272C1097.85 7.79272 1102.83 9.28481 1106.22 12.269C1109.61 15.2531 1111.31 19.0273 1111.31 23.5913C1111.31 29.2086 1109.51 33.7726 1105.9 37.2834C1102.51 40.7942 1097.32 42.5495 1090.32 42.5495ZM1059.15 90.9985C1060.21 85.3812 1060.74 81.4316 1060.74 79.1496C1060.74 74.2345 1059.36 70.6359 1056.61 68.3539C1053.85 65.8963 1049.18 64.6675 1042.61 64.6675H1039.43L1041.02 56.7683H1079.19C1087.67 56.7683 1093.71 58.0848 1097.32 60.7179C1100.92 63.351 1102.72 67.915 1102.72 74.41C1102.72 77.7452 1101.98 83.2747 1100.5 90.9985L1081.73 180.524H1040.38L1059.15 90.9985Z" fill="#2082FF"/>
<path d="M897.381 40.9697C898.442 35.3524 898.972 31.4028 898.972 29.1208C898.972 24.2057 897.593 20.6071 894.837 18.3251C892.08 15.8676 887.416 14.6388 880.842 14.6388H877.662L879.252 6.7395H917.419C925.9 6.7395 931.943 8.05605 935.548 10.6891C939.153 13.3222 940.955 17.8863 940.955 24.3812C940.955 29.8229 940.213 35.3524 938.729 40.9697L911.376 168.675H1021.1L1018.88 180.524H867.802L897.381 40.9697Z" fill="#2082FF"/>
<path d="M680.865 183.157C666.659 183.157 654.254 181.753 643.653 178.944C633.263 176.135 628.068 170.079 628.068 160.776C628.068 156.387 629.022 149.804 630.93 141.027H642.062V141.817C642.062 150.77 644.925 157.967 650.65 163.409C656.375 168.675 665.174 171.308 677.048 171.308C686.166 171.308 694.435 169.728 701.857 166.568C709.278 163.409 712.989 158.318 712.989 151.296C712.989 147.259 710.868 143.836 706.628 141.027C702.599 138.219 696.556 135.235 688.498 132.075L673.232 126.282C662.206 121.894 653.83 117.242 648.105 112.327C642.592 107.412 639.836 101.619 639.836 94.9482C639.836 85.9957 643.122 78.4475 649.696 72.3036C656.481 66.1597 665.068 61.5957 675.458 58.6115C686.06 55.6273 696.98 54.1353 708.218 54.1353C722.424 54.1353 734.722 55.5396 745.112 58.3482C755.714 61.1568 761.015 67.213 761.015 76.5166C761.015 80.905 760.061 87.4878 758.153 96.2647H747.021V95.4748C747.021 86.5223 744.158 79.413 738.433 74.1468C732.708 68.705 723.909 65.9842 712.034 65.9842C703.977 65.9842 696.768 67.8273 690.407 71.5137C684.046 75.0245 680.865 80.1151 680.865 86.7856C680.865 90.4719 682.349 93.6316 685.318 96.2647C688.498 98.7223 693.269 101.092 699.63 103.374L717.441 109.957C730.164 114.521 739.387 119.26 745.112 124.176C751.049 128.915 754.018 134.796 754.018 141.817C754.018 151.121 750.413 158.932 743.204 165.252C735.995 171.396 726.771 175.96 715.533 178.944C704.295 181.753 692.739 183.157 680.865 183.157Z" fill="#2082FF"/>
<path d="M512.04 183.157C493.804 183.157 480.022 178.768 470.692 169.991C461.363 161.214 456.698 149.804 456.698 135.761C456.698 123.122 459.985 110.483 466.558 97.8446C473.343 85.2058 482.991 74.7612 495.501 66.5108C508.223 58.2604 522.854 54.1353 539.392 54.1353C550.418 54.1353 559.112 56.5928 565.473 61.5079C568.654 63.7899 571.092 66.1597 572.788 68.6173H574.379L588.055 56.7683H615.09L594.416 154.193L589.009 180.524H561.974L553.069 168.675H551.479C548.934 171.308 545.541 173.765 541.301 176.047C533.243 180.787 523.49 183.157 512.04 183.157ZM520.945 171.308C525.398 171.308 529.427 170.606 533.031 169.201C536.636 167.622 540.347 165.515 544.163 162.882C547.344 160.6 550.312 157.704 553.069 154.193L568.335 83.0993C567.063 79.9396 565.261 77.1309 562.929 74.6734C557.628 68.8806 551.054 65.9842 543.209 65.9842C533.031 65.9842 524.55 70.5482 517.765 79.6763C511.191 88.6288 506.315 99.1611 503.134 111.273C500.166 123.386 498.681 133.83 498.681 142.607C498.681 161.741 506.103 171.308 520.945 171.308Z" fill="#2082FF"/>
<path d="M371.541 180.524C383.415 124.702 391.579 85.9956 396.031 64.4042C400.484 42.8129 402.71 31.0517 402.71 29.1208C402.71 24.2057 401.332 20.6071 398.576 18.3251C395.819 15.8676 391.154 14.6388 384.581 14.6388H381.401L382.991 6.7395H421.158C429.639 6.7395 435.682 8.05605 439.287 10.6891C442.892 13.3222 444.694 17.8863 444.694 24.3812C444.694 26.3122 442.998 35.4402 439.605 51.7654C436.424 68.0906 430.593 96.528 422.112 137.078L412.888 180.524H371.541Z" fill="#2082FF"/>
<path d="M334.937 42.5495C328.364 42.5495 323.381 41.0575 319.989 38.0733C316.596 35.0891 314.9 31.315 314.9 26.751C314.9 21.6603 316.808 17.2719 320.625 13.5855C324.654 9.72366 329.742 7.79272 335.892 7.79272C342.465 7.79272 347.448 9.28481 350.84 12.269C354.233 15.2531 355.929 19.0273 355.929 23.5913C355.929 29.2086 354.127 33.7726 350.522 37.2834C347.129 40.7942 341.935 42.5495 334.937 42.5495ZM303.768 90.9985C304.828 85.3812 305.358 81.4316 305.358 79.1496C305.358 74.2345 303.98 70.6359 301.223 68.3539C298.467 65.8963 293.802 64.6675 287.229 64.6675H284.048L285.639 56.7683H323.805C332.287 56.7683 338.33 58.0848 341.935 60.7179C345.539 63.351 347.342 67.915 347.342 74.41C347.342 77.7452 346.599 83.2747 345.115 90.9985L326.35 180.524H285.003L303.768 90.9985Z" fill="#2082FF"/>
<path d="M166.519 185C155.281 185 144.574 183.859 134.396 181.577C124.43 179.295 116.373 176.047 110.224 171.835C104.075 167.446 101 162.355 101 156.563C101 154.983 103.226 143.66 107.679 122.596H116.585V124.439C116.585 141.642 120.719 154.105 128.989 161.829C137.47 169.377 150.617 173.151 168.428 173.151C176.061 173.151 183.376 172.01 190.374 169.728C197.583 167.446 203.414 164.023 207.867 159.459C212.532 154.895 214.864 149.278 214.864 142.607C214.864 136.814 212.744 131.899 208.503 127.862C204.262 123.649 197.583 118.909 188.465 113.643L153.479 94.1583C142.877 88.3655 135.138 82.4849 130.261 76.5166C125.596 70.5482 123.264 63.7899 123.264 56.2417C123.264 45.1827 127.081 35.5281 134.714 27.2777C142.347 19.0273 152.419 12.7957 164.929 8.58273C177.439 4.19424 190.798 2 205.004 2C216.242 2 226.844 3.14101 236.81 5.42302C246.988 7.70504 255.151 11.0403 261.3 15.4288C267.449 19.6417 270.524 24.6446 270.524 30.4374C270.524 31.8417 268.191 43.164 263.526 64.4043H254.621V61.5079C254.621 44.6561 250.592 32.5439 242.535 25.1712C234.477 17.623 222.285 13.8489 205.958 13.8489C198.749 13.8489 191.858 15.0777 185.285 17.5353C178.712 19.8173 173.305 23.2403 169.064 27.8043C164.823 32.3683 162.703 37.8101 162.703 44.1295C162.703 49.5712 164.717 54.1353 168.746 57.8216C172.775 61.5079 179.666 66.0719 189.419 71.5137L224.724 90.7352C236.174 97.2302 244.443 103.374 249.532 109.167C254.833 114.784 257.483 121.191 257.483 128.388C257.483 140.501 253.031 150.858 244.125 159.459C235.432 167.885 224.088 174.292 210.093 178.681C196.311 182.894 181.786 185 166.519 185Z" fill="#2082FF"/>
</svg>
