<svg width="500" height="500" viewBox="0 0 500 500" fill="none" xmlns="http://www.w3.org/2000/svg">
<rect width="500" height="500" fill="white"/>
<rect x="30" y="23" width="442" height="461" stroke="black" stroke-width="4"/>
<rect x="57.5" y="80.5" width="386" height="98" stroke="#FF0004" stroke-width="3"/>
<rect x="58.5" y="200.5" width="386" height="265" stroke="#FF0004" stroke-width="3"/>
<rect x="74.5" y="122.5" width="154" height="41" stroke="black" stroke-width="3"/>
<rect x="267.5" y="122.5" width="154" height="41" stroke="black" stroke-width="3"/>
<path d="M60.25 64V40.5938H63.5L68.625 53.1875C68.9583 54.0625 69.4062 55.2604 69.9688 56.7812C70.5521 58.2812 70.8542 59.0625 70.875 59.125H71C71.125 58.8125 71.8854 56.8333 73.2812 53.1875L78.375 40.5938H81.6875V64H79.1875V50.7812C79.1875 49.0938 79.2917 46.7292 79.5 43.6875H79.375L78.1875 46.8125L72.0625 62.25H69.875L63.75 46.8125L62.5 43.6875H62.375C62.625 47.0417 62.75 49.4062 62.75 50.7812V64H60.25ZM88.6562 59.6875C88.6562 60.4792 88.9896 61.1562 89.6562 61.7188C90.3229 62.2604 91.2396 62.5312 92.4062 62.5312C93.8854 62.5312 95.1458 62.0521 96.1875 61.0938C97.25 60.1354 97.7812 58.9167 97.7812 57.4375V55.0938C96.8646 55.3229 95.4062 55.5938 93.4062 55.9062C91.7812 56.1979 90.5833 56.6458 89.8125 57.25C89.0417 57.8542 88.6562 58.6667 88.6562 59.6875ZM86.2188 59.875C86.2188 56.75 88.6354 54.8125 93.4688 54.0625C95.6354 53.7083 97.0729 53.4167 97.7812 53.1875V52.2188C97.7812 51.1771 97.4062 50.3125 96.6562 49.625C95.9062 48.9375 94.8438 48.5938 93.4688 48.5938C92.4688 48.5938 91.5 48.8333 90.5625 49.3125C89.6458 49.7708 88.8646 50.3958 88.2188 51.1875L86.6562 49.875C87.4896 48.9167 88.4896 48.1354 89.6562 47.5312C90.8438 46.9271 92.0938 46.625 93.4062 46.625C97.9062 46.625 100.156 48.8229 100.156 53.2188V64H97.8438V61.25C97.5104 62.1458 96.8229 62.9271 95.7812 63.5938C94.7396 64.2396 93.5104 64.5625 92.0938 64.5625C90.2396 64.5625 88.7917 64.125 87.75 63.25C86.7292 62.375 86.2188 61.25 86.2188 59.875ZM105.25 43.4062V40.25H108.312V43.4062H105.25ZM105.625 64V47.1875H108V64H105.625ZM113.594 64V47.1875H115.969V50.0625H116C116.25 49.2292 116.865 48.4479 117.844 47.7188C118.823 46.9896 119.99 46.625 121.344 46.625C122.906 46.625 124.188 47.1146 125.188 48.0938C126.208 49.0729 126.719 50.75 126.719 53.125V64H124.281V53.5312C124.281 50.2812 123.115 48.6562 120.781 48.6562C119.49 48.6562 118.375 49.1771 117.438 50.2188C116.5 51.2604 116.031 52.5104 116.031 53.9688V64H113.594Z" fill="black"/>
<path d="M77.5449 107V105.373H79.2676V107H77.5449ZM82.4805 103.186C82.4805 104.051 82.6719 104.753 83.0547 105.291C83.4375 105.82 83.9388 106.084 84.5586 106.084C85.1875 106.084 85.6842 105.829 86.0488 105.318C86.4225 104.808 86.6094 104.092 86.6094 103.172C86.6094 102.279 86.418 101.577 86.0352 101.066C85.6615 100.547 85.1784 100.287 84.5859 100.287C83.9479 100.287 83.4375 100.561 83.0547 101.107C82.6719 101.645 82.4805 102.338 82.4805 103.186ZM81.4141 103.199C81.4141 102.06 81.6966 101.144 82.2617 100.451C82.8268 99.7493 83.556 99.3984 84.4492 99.3984C85.0143 99.3984 85.4746 99.5443 85.8301 99.8359C86.1947 100.128 86.4544 100.465 86.6094 100.848V99.6445H87.6484V106.139C87.6484 107.533 87.3978 108.568 86.8965 109.242C86.4043 109.926 85.6159 110.268 84.5312 110.268C83.3555 110.268 82.444 109.821 81.7969 108.928L82.5352 108.449C83.1003 109.087 83.7747 109.406 84.5586 109.406C85.2057 109.406 85.707 109.151 86.0625 108.641C86.4271 108.139 86.6094 107.465 86.6094 106.617V105.564C86.418 105.975 86.14 106.312 85.7754 106.576C85.4199 106.84 84.987 106.973 84.4766 106.973C83.5469 106.973 82.804 106.622 82.248 105.92C81.6921 105.209 81.4141 104.302 81.4141 103.199ZM89.877 107V99.6445H90.8887V100.711C91.0345 100.383 91.276 100.082 91.6133 99.8086C91.9505 99.5352 92.3835 99.3984 92.9121 99.3984C93.304 99.3984 93.6504 99.4622 93.9512 99.5898V100.547C93.623 100.419 93.2767 100.355 92.9121 100.355C92.2923 100.355 91.8092 100.588 91.4629 101.053C91.1165 101.518 90.9434 102.133 90.9434 102.898V107H89.877ZM95.1133 97.9902V96.6094H96.4531V97.9902H95.1133ZM95.2773 107V99.6445H96.3164V107H95.2773ZM98.2715 103.309C98.2715 102.096 98.5632 101.144 99.1465 100.451C99.7298 99.7493 100.468 99.3984 101.361 99.3984C101.899 99.3984 102.364 99.5534 102.756 99.8633C103.157 100.173 103.439 100.529 103.604 100.93V96.377H104.643V107H103.631V105.674C103.439 106.13 103.143 106.508 102.742 106.809C102.35 107.1 101.89 107.246 101.361 107.246C100.988 107.246 100.623 107.169 100.268 107.014C99.9212 106.868 99.5931 106.649 99.2832 106.357C98.9824 106.057 98.7363 105.646 98.5449 105.127C98.3626 104.598 98.2715 103.992 98.2715 103.309ZM99.3379 103.309C99.3379 104.229 99.5384 104.967 99.9395 105.523C100.34 106.079 100.86 106.357 101.498 106.357C102.09 106.357 102.592 106.084 103.002 105.537C103.421 104.981 103.631 104.238 103.631 103.309C103.631 102.388 103.421 101.654 103.002 101.107C102.592 100.561 102.09 100.287 101.498 100.287C100.851 100.287 100.327 100.565 99.9258 101.121C99.5339 101.668 99.3379 102.397 99.3379 103.309ZM105.9 107.232H112.039V108.094H105.9V107.232ZM113.502 99.166V98.332H113.912C114.696 98.332 115.229 98.2135 115.512 97.9766C115.794 97.7396 115.936 97.3978 115.936 96.9512V96.6367H116.865V107.137H115.744V99.166H113.502ZM120.529 102.393V101.463H126.982V102.393H120.529ZM129.061 99.166V98.332H129.471C130.255 98.332 130.788 98.2135 131.07 97.9766C131.353 97.7396 131.494 97.3978 131.494 96.9512V96.6367H132.424V107.137H131.303V99.166H129.061Z" fill="black"/>
<path d="M81.5449 227V225.373H83.2676V227H81.5449ZM86.4805 223.186C86.4805 224.051 86.6719 224.753 87.0547 225.291C87.4375 225.82 87.9388 226.084 88.5586 226.084C89.1875 226.084 89.6842 225.829 90.0488 225.318C90.4225 224.808 90.6094 224.092 90.6094 223.172C90.6094 222.279 90.418 221.577 90.0352 221.066C89.6615 220.547 89.1784 220.287 88.5859 220.287C87.9479 220.287 87.4375 220.561 87.0547 221.107C86.6719 221.645 86.4805 222.338 86.4805 223.186ZM85.4141 223.199C85.4141 222.06 85.6966 221.144 86.2617 220.451C86.8268 219.749 87.556 219.398 88.4492 219.398C89.0143 219.398 89.4746 219.544 89.8301 219.836C90.1947 220.128 90.4544 220.465 90.6094 220.848V219.645H91.6484V226.139C91.6484 227.533 91.3978 228.568 90.8965 229.242C90.4043 229.926 89.6159 230.268 88.5312 230.268C87.3555 230.268 86.444 229.821 85.7969 228.928L86.5352 228.449C87.1003 229.087 87.7747 229.406 88.5586 229.406C89.2057 229.406 89.707 229.151 90.0625 228.641C90.4271 228.139 90.6094 227.465 90.6094 226.617V225.564C90.418 225.975 90.14 226.312 89.7754 226.576C89.4199 226.84 88.987 226.973 88.4766 226.973C87.5469 226.973 86.804 226.622 86.248 225.92C85.6921 225.209 85.4141 224.302 85.4141 223.199ZM93.877 227V219.645H94.8887V220.711C95.0345 220.383 95.276 220.082 95.6133 219.809C95.9505 219.535 96.3835 219.398 96.9121 219.398C97.304 219.398 97.6504 219.462 97.9512 219.59V220.547C97.623 220.419 97.2767 220.355 96.9121 220.355C96.2923 220.355 95.8092 220.588 95.4629 221.053C95.1165 221.518 94.9434 222.133 94.9434 222.898V227H93.877ZM99.1133 217.99V216.609H100.453V217.99H99.1133ZM99.2773 227V219.645H100.316V227H99.2773ZM102.271 223.309C102.271 222.096 102.563 221.144 103.146 220.451C103.73 219.749 104.468 219.398 105.361 219.398C105.899 219.398 106.364 219.553 106.756 219.863C107.157 220.173 107.439 220.529 107.604 220.93V216.377H108.643V227H107.631V225.674C107.439 226.13 107.143 226.508 106.742 226.809C106.35 227.1 105.89 227.246 105.361 227.246C104.988 227.246 104.623 227.169 104.268 227.014C103.921 226.868 103.593 226.649 103.283 226.357C102.982 226.057 102.736 225.646 102.545 225.127C102.363 224.598 102.271 223.992 102.271 223.309ZM103.338 223.309C103.338 224.229 103.538 224.967 103.939 225.523C104.34 226.079 104.86 226.357 105.498 226.357C106.09 226.357 106.592 226.084 107.002 225.537C107.421 224.981 107.631 224.238 107.631 223.309C107.631 222.388 107.421 221.654 107.002 221.107C106.592 220.561 106.09 220.287 105.498 220.287C104.851 220.287 104.327 220.565 103.926 221.121C103.534 221.668 103.338 222.397 103.338 223.309ZM109.9 227.232H116.039V228.094H109.9V227.232ZM117.502 219.166V218.332H117.912C118.696 218.332 119.229 218.214 119.512 217.977C119.794 217.74 119.936 217.398 119.936 216.951V216.637H120.865V227.137H119.744V219.166H117.502ZM124.529 222.393V221.463H130.982V222.393H124.529ZM133.061 219.166V218.332H133.471C134.255 218.332 134.788 218.214 135.07 217.977C135.353 217.74 135.494 217.398 135.494 216.951V216.637H136.424V227.137H135.303V219.166H133.061ZM140.088 222.393V221.463H146.541V222.393H140.088ZM148.619 219.166V218.332H149.029C149.813 218.332 150.346 218.214 150.629 217.977C150.911 217.74 151.053 217.398 151.053 216.951V216.637H151.982V227.137H150.861V219.166H148.619ZM155.646 222.393V221.463H162.1V222.393H155.646ZM164.178 219.166V218.332H164.588C165.372 218.332 165.905 218.214 166.188 217.977C166.47 217.74 166.611 217.398 166.611 216.951V216.637H167.541V227.137H166.42V219.166H164.178Z" fill="black"/>
<path d="M85.1758 148V137.377H86.2148V141.834H86.2422C86.4245 141.442 86.7161 141.105 87.1172 140.822C87.5273 140.54 87.9922 140.398 88.5117 140.398C90.0977 140.398 90.8906 141.346 90.8906 143.242V148H89.8516V143.42C89.8516 141.998 89.3411 141.287 88.3203 141.287C87.7552 141.287 87.263 141.52 86.8438 141.984C86.4245 142.449 86.2148 143.001 86.2148 143.639V148H85.1758ZM93.3242 140.166V139.332H93.7344C94.5182 139.332 95.0514 139.214 95.334 138.977C95.6165 138.74 95.7578 138.398 95.7578 137.951V137.637H96.6875V148.137H95.5664V140.166H93.3242Z" fill="black"/>
<path d="M279.545 148V146.373H281.268V148H279.545ZM283.414 144.322C283.414 143.156 283.71 142.212 284.303 141.492C284.895 140.763 285.693 140.398 286.695 140.398C287.352 140.398 287.912 140.59 288.377 140.973C288.851 141.346 289.165 141.793 289.32 142.312L288.418 142.572C288.281 142.208 288.058 141.902 287.748 141.656C287.447 141.41 287.096 141.287 286.695 141.287C286.021 141.287 285.483 141.574 285.082 142.148C284.681 142.723 284.48 143.447 284.48 144.322C284.48 145.252 284.69 145.99 285.109 146.537C285.529 147.084 286.057 147.357 286.695 147.357C287.124 147.357 287.511 147.221 287.857 146.947C288.213 146.665 288.464 146.341 288.609 145.977L289.512 146.264C289.32 146.811 288.969 147.28 288.459 147.672C287.958 148.055 287.37 148.246 286.695 148.246C285.72 148.246 284.927 147.891 284.316 147.18C283.715 146.469 283.414 145.516 283.414 144.322ZM291.508 144.322C291.508 145.252 291.722 145.99 292.15 146.537C292.579 147.084 293.112 147.357 293.75 147.357C294.379 147.357 294.908 147.084 295.336 146.537C295.773 145.99 295.992 145.252 295.992 144.322C295.992 143.374 295.773 142.632 295.336 142.094C294.898 141.556 294.37 141.287 293.75 141.287C293.121 141.287 292.588 141.556 292.15 142.094C291.722 142.632 291.508 143.374 291.508 144.322ZM290.441 144.322C290.441 143.201 290.729 142.267 291.303 141.52C291.886 140.772 292.702 140.398 293.75 140.398C294.789 140.398 295.6 140.772 296.184 141.52C296.767 142.267 297.059 143.201 297.059 144.322C297.059 144.796 296.995 145.257 296.867 145.703C296.749 146.15 296.562 146.569 296.307 146.961C296.061 147.344 295.714 147.654 295.268 147.891C294.83 148.128 294.324 148.246 293.75 148.246C293.185 148.246 292.679 148.132 292.232 147.904C291.795 147.667 291.449 147.357 291.193 146.975C290.947 146.583 290.76 146.163 290.633 145.717C290.505 145.27 290.441 144.805 290.441 144.322ZM298.918 148V137.377H299.957V148H298.918Z" fill="black"/>
</svg>
