<svg width="82" height="23" viewBox="0 0 82 23" fill="none" xmlns="http://www.w3.org/2000/svg">
<path d="M0.265625 0.09375H9.57812L13.1719 14.0312L16.75 0.09375H26.0312V23H20.25V5.53125L15.7656 23H10.5312L6.0625 5.53125V23H0.265625V0.09375ZM30.4844 0.09375H39.7969L43.3906 14.0312L46.9688 0.09375H56.25V23H50.4688V5.53125L45.9844 23H40.75L36.2812 5.53125V23H30.4844V0.09375ZM60.875 0.09375H71.3906C73.4635 0.09375 75.1354 0.375 76.4062 0.9375C77.6875 1.5 78.7448 2.30729 79.5781 3.35938C80.4115 4.41146 81.0156 5.63542 81.3906 7.03125C81.7656 8.42708 81.9531 9.90625 81.9531 11.4688C81.9531 13.9167 81.6719 15.8177 81.1094 17.1719C80.5573 18.5156 79.7865 19.6458 78.7969 20.5625C77.8073 21.4688 76.7448 22.0729 75.6094 22.375C74.0573 22.7917 72.651 23 71.3906 23H60.875V0.09375ZM67.9531 5.28125V17.7969H69.6875C71.1667 17.7969 72.2188 17.6354 72.8438 17.3125C73.4688 16.9792 73.9583 16.4062 74.3125 15.5938C74.6667 14.7708 74.8438 13.4427 74.8438 11.6094C74.8438 9.18229 74.4479 7.52083 73.6562 6.625C72.8646 5.72917 71.5521 5.28125 69.7188 5.28125H67.9531Z" fill="white"/>
</svg>
