<svg width="200" height="34" viewBox="0 0 200 34" fill="none" xmlns="http://www.w3.org/2000/svg">
<path d="M168.333 33.6883V24.1057L187.091 16.8577L168.333 9.63686V0L199.198 12.813V20.8482L168.333 33.6883Z" fill="white"/>
<path d="M148.109 12.7315H164.18V21.2825H148.109V12.7315Z" fill="white"/>
<path d="M129.595 12.7315H145.666V21.2825H129.595V12.7315Z" fill="white"/>
<path d="M111.082 12.7315H127.152V21.2825H111.082V12.7315Z" fill="white"/>
<path d="M92.5681 12.7315H108.639V21.2825H92.5681V12.7315Z" fill="white"/>
<path d="M74.0544 12.7315H90.1249V21.2825H74.0544V12.7315Z" fill="white"/>
<path d="M55.541 12.7315H71.6115V21.2825H55.541V12.7315Z" fill="white"/>
<path d="M37.0273 12.7315H53.0978V21.2825H37.0273V12.7315Z" fill="white"/>
<path d="M18.5137 12.7315H34.5842V21.2825H18.5137V12.7315Z" fill="white"/>
<path d="M0 12.7315H16.0705V21.2825H0V12.7315Z" fill="white"/>
</svg>
