<svg width="230" height="40" viewBox="0 0 230 40" fill="none" xmlns="http://www.w3.org/2000/svg">
<path d="M194.188 39.5V28.4688L215.781 20.125L194.188 11.8125V0.71875L229.719 15.4688V24.7188L194.188 39.5Z" fill="white"/>
<path d="M170.906 15.375H189.406V25.2188H170.906V15.375Z" fill="white"/>
<path d="M149.594 15.375H168.094V25.2188H149.594V15.375Z" fill="white"/>
<path d="M128.281 15.375H146.781V25.2188H128.281V15.375Z" fill="white"/>
<path d="M106.969 15.375H125.469V25.2188H106.969V15.375Z" fill="white"/>
<path d="M85.6562 15.375H104.156V25.2188H85.6562V15.375Z" fill="white"/>
<path d="M64.3438 15.375H82.8438V25.2188H64.3438V15.375Z" fill="white"/>
<path d="M43.0312 15.375H61.5312V25.2188H43.0312V15.375Z" fill="white"/>
<path d="M21.7188 15.375H40.2188V25.2188H21.7188V15.375Z" fill="white"/>
<path d="M0.40625 15.375H18.9062V25.2188H0.40625V15.375Z" fill="white"/>
</svg>
