<svg width="690" height="301" viewBox="0 0 690 301" fill="none" xmlns="http://www.w3.org/2000/svg">
<path d="M1 300.5H689.5V2L638.5 54.5C633.3 74.9 596.667 77.6667 579 76.5C545 61.7 524.167 32 518 19C472 -9.49998 480.5 119 472 103.5C463.5 88 440 68 394 64.5C357.2 61.7 349.333 111 350 136C328 100.5 299.5 100.5 282.5 95C265.5 89.5 231.5 122.5 233 153C234.5 183.5 160 212 126.5 198.5C93 185 84 190 65.5 242.5C50.7 284.5 16.3333 298.667 1 300.5Z" fill="#FFD95F" stroke="#FFD95F"/>
<path d="M639.348 125.096C637.062 125.096 635.288 124.096 634.027 122.095C632.766 119.969 632.135 117.155 632.135 113.653C632.135 110.151 632.766 107.399 634.027 105.398C635.288 103.272 637.062 102.209 639.348 102.209C641.634 102.209 643.407 103.272 644.668 105.398C645.929 107.399 646.56 110.151 646.56 113.653C646.56 117.155 645.929 119.969 644.668 122.095C643.407 124.096 641.634 125.096 639.348 125.096ZM639.348 191.32C637.062 191.32 635.288 190.319 634.027 188.318C632.766 186.192 632.135 183.378 632.135 179.876C632.135 176.374 632.766 173.623 634.027 171.622C635.288 169.496 637.062 168.433 639.348 168.433C641.634 168.433 643.407 169.496 644.668 171.622C645.929 173.623 646.56 176.374 646.56 179.876C646.56 183.378 645.929 186.192 644.668 188.318C643.407 190.319 641.634 191.32 639.348 191.32Z" fill="#2082FF"/>
<path d="M592.673 190.57C586.919 190.57 581.875 188.568 577.539 184.566C573.283 180.439 570.012 174.936 567.726 168.057C565.44 161.053 564.297 153.237 564.297 144.607C564.297 135.977 565.44 128.223 567.726 121.344C570.012 114.34 573.283 108.837 577.539 104.835C581.875 100.708 586.919 98.6444 592.673 98.6444C598.427 98.6444 603.433 100.708 607.689 104.835C612.025 108.837 615.335 114.34 617.621 121.344C619.907 128.223 621.05 135.977 621.05 144.607C621.05 153.237 619.907 161.053 617.621 168.057C615.335 174.936 612.025 180.439 607.689 184.566C603.433 188.568 598.427 190.57 592.673 190.57ZM592.673 182.127C596.693 182.127 599.767 178.688 601.896 171.809C604.024 164.931 605.088 155.863 605.088 144.607C605.088 133.351 604.024 124.283 601.896 117.405C599.767 110.526 596.693 107.087 592.673 107.087C588.653 107.087 585.579 110.526 583.451 117.405C581.323 124.283 580.259 133.351 580.259 144.607C580.259 155.863 581.323 164.931 583.451 171.809C585.579 178.688 588.653 182.127 592.673 182.127Z" fill="#2082FF"/>
<path d="M545.545 90.3899C542.707 90.3899 540.5 89.0142 538.923 86.2627C537.426 83.5112 536.677 80.1343 536.677 76.1322C536.677 72.8804 537.268 70.3165 538.45 68.4405C539.712 66.5644 541.288 65.6264 543.18 65.6264C546.017 65.6264 548.185 67.0022 549.683 69.7537C551.259 72.5052 552.047 75.882 552.047 79.8842C552.047 83.136 551.417 85.6999 550.156 87.5759C548.973 89.4519 547.436 90.3899 545.545 90.3899ZM537.859 124.909C537.859 118.53 537.307 113.84 536.204 110.839C535.1 107.712 532.893 106.149 529.583 106.149H528.4V100.52H542.589C545.426 100.52 547.594 101.271 549.092 102.772C550.589 104.273 551.653 106.774 552.284 110.276C552.915 113.653 553.23 118.53 553.23 124.909V188.694H537.859V124.909Z" fill="#2082FF"/>
<path d="M505.603 89.2644C505.603 82.8859 505.051 78.1958 503.948 75.1942C502.844 72.0675 500.637 70.5041 497.327 70.5041H496.144V64.8761H510.333C513.17 64.8761 515.338 65.6265 516.835 67.1273C518.333 68.6281 519.397 71.1295 520.028 74.6314C520.658 78.0082 520.974 82.8859 520.974 89.2644V188.694H505.603V89.2644Z" fill="#2082FF"/>
<path d="M465.432 190.57C459.678 190.57 454.633 188.568 450.298 184.566C446.041 180.439 442.77 174.936 440.484 168.057C438.198 161.053 437.055 153.237 437.055 144.607C437.055 135.977 438.198 128.223 440.484 121.344C442.77 114.34 446.041 108.837 450.298 104.835C454.633 100.708 459.678 98.6444 465.432 98.6444C471.186 98.6444 476.191 100.708 480.448 104.835C484.783 108.837 488.094 114.34 490.379 121.344C492.665 128.223 493.808 135.977 493.808 144.607C493.808 153.237 492.665 161.053 490.379 168.057C488.094 174.936 484.783 180.439 480.448 184.566C476.191 188.568 471.186 190.57 465.432 190.57ZM465.432 182.127C469.452 182.127 472.526 178.688 474.654 171.809C476.782 164.931 477.846 155.863 477.846 144.607C477.846 133.351 476.782 124.283 474.654 117.405C472.526 110.526 469.452 107.087 465.432 107.087C461.412 107.087 458.338 110.526 456.209 117.405C454.081 124.283 453.017 133.351 453.017 144.607C453.017 155.863 454.081 164.931 456.209 171.809C458.338 178.688 461.412 182.127 465.432 182.127Z" fill="#2082FF"/>
<path d="M402.285 108.963H395.19V100.52H402.285V95.4552C402.285 84.8244 404.176 76.7575 407.96 71.2545C411.822 65.7515 417.616 63 425.341 63C427.548 63 429.636 63.3127 431.607 63.938C433.656 64.4383 435.154 65.1887 436.1 66.1892C438.149 68.0653 439.686 70.7542 440.711 74.2561L435.982 80.8222C434.799 77.8206 433.341 75.5068 431.607 73.8809C429.873 72.255 427.981 71.4421 425.932 71.4421C423.173 71.4421 421.084 73.2556 419.665 76.8826C418.325 80.5095 417.655 86.7004 417.655 95.4552V100.52H433.026V108.963H417.655V188.694H402.285V108.963Z" fill="#2082FF"/>
<path d="M361.167 190.57C355.413 190.57 350.369 188.568 346.033 184.566C341.777 180.439 338.506 174.936 336.22 168.057C333.934 161.053 332.791 153.237 332.791 144.607C332.791 135.977 333.934 128.223 336.22 121.344C338.506 114.34 341.777 108.837 346.033 104.835C350.369 100.708 355.413 98.6444 361.167 98.6444C366.922 98.6444 371.927 100.708 376.183 104.835C380.519 108.837 383.829 114.34 386.115 121.344C388.401 128.223 389.544 135.977 389.544 144.607C389.544 153.237 388.401 161.053 386.115 168.057C383.829 174.936 380.519 180.439 376.183 184.566C371.927 188.568 366.922 190.57 361.167 190.57ZM361.167 182.127C365.187 182.127 368.262 178.688 370.39 171.809C372.518 164.931 373.582 155.863 373.582 144.607C373.582 133.351 372.518 124.283 370.39 117.405C368.262 110.526 365.187 107.087 361.167 107.087C357.147 107.087 354.073 110.526 351.945 117.405C349.817 124.283 348.753 133.351 348.753 144.607C348.753 155.863 349.817 164.931 351.945 171.809C354.073 178.688 357.147 182.127 361.167 182.127Z" fill="#2082FF"/>
<path d="M313.457 190.57C308.019 190.57 303.802 188.256 300.806 183.628C297.811 178.876 296.313 172.059 296.313 163.18V108.963H289.219V100.52H296.313V83.6362L302.225 72.3801H311.684V100.52H324.69V108.963H311.684V164.305C311.684 171.059 312.196 175.749 313.221 178.375C314.246 180.877 315.783 182.127 317.832 182.127C320.039 182.127 322.246 181.314 324.453 179.689C325.32 178.938 326.227 178.063 327.173 177.062L328.828 182.315C327.803 183.691 326.582 185.067 325.163 186.442C321.852 189.194 317.95 190.57 313.457 190.57Z" fill="#2082FF"/>
<path d="M282.365 102.396C283.784 104.022 284.809 105.836 285.439 107.837C286.07 109.713 286.385 110.713 286.385 110.839L280.355 118.155C279.803 117.029 279.094 115.841 278.227 114.591C276.493 112.089 274.483 110.839 272.197 110.839C267.625 110.839 264.118 112.777 261.674 116.654L261.911 119.468C262.068 121.719 262.147 123.783 262.147 125.659V188.693H246.776V124.909C246.776 118.53 246.225 113.84 245.121 110.839C244.096 107.712 241.929 106.148 238.618 106.148H237.436V100.52H249.141C251.821 100.52 253.91 101.083 255.408 102.209C256.984 103.209 258.206 104.96 259.073 107.462C263.329 101.584 268.295 98.6444 273.971 98.6444C277.36 98.6444 280.158 99.8951 282.365 102.396Z" fill="#2082FF"/>
<path d="M204.713 190.57C198.959 190.57 193.914 188.568 189.579 184.566C185.323 180.439 182.052 174.936 179.766 168.057C177.48 161.053 176.337 153.237 176.337 144.607C176.337 135.977 177.48 128.223 179.766 121.344C182.052 114.34 185.323 108.837 189.579 104.835C193.914 100.708 198.959 98.6444 204.713 98.6444C210.467 98.6444 215.473 100.708 219.729 104.835C224.064 108.837 227.375 114.34 229.661 121.344C231.947 128.223 233.09 135.977 233.09 144.607C233.09 153.237 231.947 161.053 229.661 168.057C227.375 174.936 224.064 180.439 219.729 184.566C215.473 188.568 210.467 190.57 204.713 190.57ZM204.713 182.127C208.733 182.127 211.807 178.688 213.936 171.809C216.064 164.931 217.128 155.863 217.128 144.607C217.128 133.351 216.064 124.283 213.936 117.405C211.807 110.526 208.733 107.087 204.713 107.087C200.693 107.087 197.619 110.526 195.491 117.405C193.363 124.283 192.299 133.351 192.299 144.607C192.299 155.863 193.363 164.931 195.491 171.809C197.619 178.688 200.693 182.127 204.713 182.127Z" fill="#2082FF"/>
<path d="M116.459 89.2644C116.459 82.8859 115.907 78.1958 114.804 75.1942C113.7 72.0675 111.493 70.5041 108.182 70.5041H107V64.8761H139.515C147.634 64.8761 154.964 67.44 161.507 72.5678C168.128 77.5705 171.438 87.5759 171.438 102.584C171.438 112.339 169.704 119.906 166.236 125.284C162.847 130.662 159.024 134.226 154.767 135.977C150.511 137.728 146.609 138.604 143.062 138.604H131.829V188.694H116.459V89.2644ZM138.924 131.1C143.574 131.1 147.397 128.848 150.392 124.346C153.388 119.844 154.885 112.277 154.885 101.646C154.885 91.1404 153.388 83.6363 150.392 79.1338C147.476 74.6314 143.85 72.3802 139.515 72.3802C137.229 72.3802 135.455 72.6303 134.194 73.1306L131.829 73.6934V131.1H138.924Z" fill="#2082FF"/>
</svg>
