<svg width="690" height="301" viewBox="0 0 690 301" fill="none" xmlns="http://www.w3.org/2000/svg">
<path d="M1 300.5H689.5V2L638.5 54.5C633.3 74.9 596.667 77.6667 579 76.5C545 61.7 524.167 32 518 19C472 -9.49998 480.5 119 472 103.5C463.5 88 440 68 394 64.5C357.2 61.7 349.333 111 350 136C328 100.5 299.5 100.5 282.5 95C265.5 89.5 231.5 122.5 233 153C234.5 183.5 160 212 126.5 198.5C93 185 84 190 65.5 242.5C50.7 284.5 16.3333 298.667 1 300.5Z" fill="#FFD95F" stroke="#FFD95F"/>
<path d="M639.348 125.096C637.062 125.096 635.288 124.096 634.027 122.095C632.766 119.969 632.135 117.155 632.135 113.653C632.135 110.151 632.766 107.399 634.027 105.398C635.288 103.272 637.062 102.209 639.348 102.209C641.634 102.209 643.407 103.272 644.668 105.398C645.929 107.399 646.56 110.151 646.56 113.653C646.56 117.155 645.929 119.969 644.668 122.095C643.407 124.096 641.634 125.096 639.348 125.096ZM639.348 191.32C637.062 191.32 635.288 190.32 634.027 188.318C632.766 186.192 632.135 183.378 632.135 179.876C632.135 176.374 632.766 173.623 634.027 171.622C635.288 169.496 637.062 168.433 639.348 168.433C641.634 168.433 643.407 169.496 644.668 171.622C645.929 173.623 646.56 176.374 646.56 179.876C646.56 183.378 645.929 186.192 644.668 188.318C643.407 190.32 641.634 191.32 639.348 191.32Z" fill="#2082FF"/>
<path d="M592.673 190.57C586.919 190.57 581.875 188.569 577.539 184.566C573.283 180.439 570.012 174.936 567.726 168.057C565.44 161.054 564.297 153.237 564.297 144.607C564.297 135.977 565.44 128.223 567.726 121.344C570.012 114.341 573.283 108.838 577.539 104.835C581.875 100.708 586.919 98.6445 592.673 98.6445C598.428 98.6445 603.433 100.708 607.689 104.835C612.025 108.838 615.335 114.341 617.621 121.344C619.907 128.223 621.05 135.977 621.05 144.607C621.05 153.237 619.907 161.054 617.621 168.057C615.335 174.936 612.025 180.439 607.689 184.566C603.433 188.569 598.428 190.57 592.673 190.57ZM592.673 182.128C596.693 182.128 599.768 178.688 601.896 171.809C604.024 164.931 605.088 155.863 605.088 144.607C605.088 133.351 604.024 124.284 601.896 117.405C599.768 110.526 596.693 107.087 592.673 107.087C588.653 107.087 585.579 110.526 583.451 117.405C581.323 124.284 580.259 133.351 580.259 144.607C580.259 155.863 581.323 164.931 583.451 171.809C585.579 178.688 588.653 182.128 592.673 182.128Z" fill="#2082FF"/>
<path d="M545.545 90.39C542.707 90.39 540.5 89.0142 538.923 86.2627C537.426 83.5112 536.677 80.1344 536.677 76.1322C536.677 72.8804 537.268 70.3165 538.45 68.4405C539.712 66.5645 541.288 65.6265 543.18 65.6265C546.017 65.6265 548.185 67.0022 549.683 69.7537C551.259 72.5052 552.047 75.882 552.047 79.8842C552.047 83.136 551.417 85.6999 550.156 87.5759C548.973 89.4519 547.436 90.39 545.545 90.39ZM537.859 124.909C537.859 118.53 537.307 113.84 536.204 110.839C535.1 107.712 532.893 106.149 529.583 106.149H528.4V100.52H542.589C545.426 100.52 547.594 101.271 549.092 102.772C550.589 104.273 551.653 106.774 552.284 110.276C552.915 113.653 553.23 118.53 553.23 124.909V188.694H537.859V124.909Z" fill="#2082FF"/>
<path d="M505.603 89.2643C505.603 82.8858 505.051 78.1957 503.948 75.1941C502.844 72.0674 500.637 70.504 497.327 70.504H496.144V64.876H510.333C513.17 64.876 515.338 65.6264 516.836 67.1272C518.333 68.628 519.397 71.1294 520.028 74.6313C520.658 78.0081 520.974 82.8858 520.974 89.2643V188.693H505.603V89.2643Z" fill="#2082FF"/>
<path d="M465.432 190.57C459.678 190.57 454.633 188.569 450.298 184.566C446.041 180.439 442.77 174.936 440.484 168.057C438.198 161.054 437.055 153.237 437.055 144.607C437.055 135.977 438.198 128.223 440.484 121.344C442.77 114.341 446.041 108.838 450.298 104.835C454.633 100.708 459.678 98.6445 465.432 98.6445C471.186 98.6445 476.191 100.708 480.448 104.835C484.783 108.838 488.093 114.341 490.379 121.344C492.665 128.223 493.808 135.977 493.808 144.607C493.808 153.237 492.665 161.054 490.379 168.057C488.093 174.936 484.783 180.439 480.448 184.566C476.191 188.569 471.186 190.57 465.432 190.57ZM465.432 182.128C469.452 182.128 472.526 178.688 474.654 171.809C476.782 164.931 477.846 155.863 477.846 144.607C477.846 133.351 476.782 124.284 474.654 117.405C472.526 110.526 469.452 107.087 465.432 107.087C461.412 107.087 458.338 110.526 456.209 117.405C454.081 124.284 453.017 133.351 453.017 144.607C453.017 155.863 454.081 164.931 456.209 171.809C458.338 178.688 461.412 182.128 465.432 182.128Z" fill="#2082FF"/>
<path d="M402.285 108.963H395.19V100.52H402.285V95.4552C402.285 84.8244 404.176 76.7575 407.96 71.2545C411.822 65.7515 417.616 63 425.34 63C427.548 63 429.636 63.3127 431.607 63.938C433.656 64.4383 435.154 65.1887 436.1 66.1892C438.149 68.0653 439.686 70.7542 440.711 74.2561L435.982 80.8222C434.799 77.8206 433.341 75.5068 431.607 73.8809C429.873 72.255 427.981 71.4421 425.932 71.4421C423.173 71.4421 421.084 73.2556 419.665 76.8826C418.325 80.5095 417.655 86.7004 417.655 95.4552V100.52H433.026V108.963H417.655V188.694H402.285V108.963Z" fill="#2082FF"/>
<path d="M372.457 190.694C367.019 190.694 362.802 188.38 359.806 183.752C356.811 179 355.313 172.183 355.313 163.304V109.087H348.219V100.644H355.313V83.7603L361.225 72.5042H370.684V100.644H383.69V109.087H370.684V164.429C370.684 171.183 371.196 175.873 372.221 178.499C373.246 181.001 374.783 182.251 376.832 182.251C379.039 182.251 381.246 181.439 383.453 179.813C384.32 179.062 385.227 178.187 386.173 177.186L387.828 182.439C386.803 183.815 385.582 185.191 384.163 186.566C380.852 189.318 376.95 190.694 372.457 190.694Z" fill="#2082FF"/>
<path d="M341.365 102.521C342.784 104.146 343.809 105.96 344.439 107.961C345.07 109.837 345.385 110.838 345.385 110.963L339.355 118.279C338.803 117.154 338.094 115.965 337.227 114.715C335.493 112.213 333.483 110.963 331.197 110.963C326.625 110.963 323.118 112.901 320.674 116.778L320.911 119.592C321.068 121.844 321.147 123.907 321.147 125.783V188.818H305.776V125.033C305.776 118.654 305.225 113.964 304.121 110.963C303.096 107.836 300.929 106.273 297.618 106.273H296.436V100.645H308.141C310.821 100.645 312.91 101.207 314.408 102.333C315.984 103.334 317.206 105.085 318.073 107.586C322.329 101.708 327.295 98.7686 332.971 98.7686C336.36 98.7686 339.158 100.019 341.365 102.521Z" fill="#2082FF"/>
<path d="M263.713 190.694C257.959 190.694 252.914 188.693 248.579 184.69C244.323 180.563 241.052 175.06 238.766 168.181C236.48 161.178 235.337 153.361 235.337 144.731C235.337 136.101 236.48 128.347 238.766 121.468C241.052 114.465 244.323 108.962 248.579 104.959C252.914 100.832 257.959 98.7686 263.713 98.7686C269.467 98.7686 274.473 100.832 278.729 104.959C283.064 108.962 286.375 114.465 288.661 121.468C290.947 128.347 292.09 136.101 292.09 144.731C292.09 153.361 290.947 161.178 288.661 168.181C286.375 175.06 283.064 180.563 278.729 184.69C274.473 188.693 269.467 190.694 263.713 190.694ZM263.713 182.252C267.733 182.252 270.807 178.812 272.936 171.933C275.064 165.055 276.128 155.987 276.128 144.731C276.128 133.475 275.064 124.408 272.936 117.529C270.807 110.65 267.733 107.211 263.713 107.211C259.693 107.211 256.619 110.65 254.491 117.529C252.363 124.408 251.299 133.475 251.299 144.731C251.299 155.987 252.363 165.055 254.491 171.933C256.619 178.812 259.693 182.252 263.713 182.252Z" fill="#2082FF"/>
<path d="M175.459 89.3883C175.459 83.0098 174.907 78.3198 173.804 75.3181C172.7 72.1914 170.493 70.6281 167.182 70.6281H166V65H198.515C206.634 65 213.964 67.5639 220.507 72.6917C227.128 77.6944 230.438 87.6999 230.438 102.708C230.438 112.463 228.704 120.03 225.236 125.408C221.847 130.786 218.024 134.35 213.767 136.101C209.511 137.852 205.609 138.728 202.062 138.728H190.829V188.817H175.459V89.3883ZM197.924 131.224C202.574 131.224 206.397 128.972 209.392 124.47C212.388 119.967 213.885 112.401 213.885 101.77C213.885 91.2643 212.388 83.7602 209.392 79.2578C206.476 74.7553 202.85 72.5041 198.515 72.5041C196.229 72.5041 194.455 72.7542 193.194 73.2545L190.829 73.8173V131.224H197.924Z" fill="#2082FF"/>
<path d="M517.188 263.5V252.469L538.781 244.125L517.188 235.812V224.719L552.719 239.469V248.719L517.188 263.5Z" fill="white"/>
<path d="M493.906 239.375H512.406V249.219H493.906V239.375Z" fill="white"/>
<path d="M472.594 239.375H491.094V249.219H472.594V239.375Z" fill="white"/>
<path d="M451.281 239.375H469.781V249.219H451.281V239.375Z" fill="white"/>
<path d="M429.969 239.375H448.469V249.219H429.969V239.375Z" fill="white"/>
<path d="M408.656 239.375H427.156V249.219H408.656V239.375Z" fill="white"/>
<path d="M387.344 239.375H405.844V249.219H387.344V239.375Z" fill="white"/>
<path d="M366.031 239.375H384.531V249.219H366.031V239.375Z" fill="white"/>
<path d="M344.719 239.375H363.219V249.219H344.719V239.375Z" fill="white"/>
<path d="M323.406 239.375H341.906V249.219H323.406V239.375Z" fill="white"/>
</svg>
