<svg width="97" height="75" viewBox="0 0 97 75" fill="none" xmlns="http://www.w3.org/2000/svg">
<rect width="97" height="75" fill="#2082FF"/>
<path d="M76.6899 51.2418C76.6899 49.5646 76.5426 48.3314 76.248 47.5422C75.9534 46.72 75.3642 46.3089 74.4804 46.3089H73.8492V45.3224H76.6899C77.4685 45.3224 78.0577 45.4868 78.4575 45.8157C78.8784 46.1445 79.1835 46.6378 79.3729 47.2955H79.5307C79.9726 46.6049 80.5408 46.0294 81.2352 45.569C81.9506 45.0757 82.7503 44.8291 83.6341 44.8291C85.2123 44.8291 86.4959 45.4868 87.4849 46.8022C88.495 48.1176 89 50.4196 89 53.7082V68.5066H86.1592V53.7082C86.1592 51.4062 85.8225 49.729 85.1492 48.6767C84.4968 47.5915 83.6762 47.0489 82.6871 47.0489C81.5719 47.0489 80.5197 47.9203 79.5307 49.6633V68.5066H76.6899V51.2418Z" fill="black"/>
<path d="M66.5805 68.9999C65.1496 68.9999 63.9396 68.4737 62.9506 67.4214C61.9616 66.3362 61.2146 64.8892 60.7095 63.0805C60.2045 61.2389 59.952 59.1836 59.952 56.9145C59.952 54.6783 60.2045 52.6394 60.7095 50.7978C61.2146 48.9562 61.9405 47.5093 62.8875 46.4569C63.8554 45.3717 64.9812 44.8291 66.2648 44.8291C68.3902 44.8291 69.9684 45.7663 70.9995 47.6408C72.0516 49.4824 72.5777 52.1626 72.5777 55.6813L72.5146 57.6544H62.9506C62.9506 60.4168 63.3294 62.6695 64.0869 64.4124C64.8445 66.1553 65.8861 67.0268 67.2118 67.0268C68.2008 67.0268 69.032 66.6979 69.7054 66.0402C70.3998 65.3825 71.0416 64.3959 71.6308 63.0805L72.2621 63.8204C71.5676 65.6291 70.7575 66.9446 69.8316 67.7667C68.9057 68.5888 67.822 68.9999 66.5805 68.9999ZM69.5791 55.6813C69.5791 52.7874 69.3055 50.5841 68.7584 49.0713C68.2113 47.5586 67.3801 46.8022 66.2648 46.8022C65.6336 46.8022 65.0654 47.1969 64.5604 47.9861C64.0553 48.7425 63.6555 49.7948 63.3609 51.1431C63.0874 52.4914 62.9506 54.0041 62.9506 55.6813H69.5791Z" fill="black"/>
<path d="M54.7094 42.3629C54.2254 42.3629 53.8045 42.0504 53.4468 41.4256C53.1101 40.8008 52.9418 40.0609 52.9418 39.2059C52.9418 38.5153 53.068 37.9726 53.3206 37.578C53.5941 37.1834 53.9518 36.9861 54.3937 36.9861C54.8777 36.9861 55.2881 37.2985 55.6247 37.9233C55.9825 38.5481 56.1613 39.2881 56.1613 40.1431C56.1613 40.8337 56.0246 41.3763 55.751 41.7709C55.4985 42.1655 55.1513 42.3629 54.7094 42.3629ZM53.5099 51.2419C53.5099 49.5648 53.3626 48.3316 53.068 47.5423C52.7734 46.7202 52.1842 46.3091 51.3004 46.3091H50.6692V45.3225H53.5099C54.2885 45.3225 54.8672 45.487 55.246 45.8158C55.6458 46.1118 55.9299 46.6708 56.0982 47.493C56.2666 48.3151 56.3507 49.5648 56.3507 51.2419V68.5068H53.5099V51.2419Z" fill="black"/>
<path d="M32.6193 22.4119C32.6193 19.5531 32.43 17.451 32.0514 16.1057C31.6728 14.7043 30.9157 14.0037 29.78 14.0037H28.9687V12.322H32.6193C33.6198 12.322 34.3634 12.6023 34.8502 13.1628C35.3639 13.6673 35.729 14.6203 35.9453 16.0216C36.1616 17.423 36.2698 19.5531 36.2698 22.4119V64.4529H50.6692V67.8162H32.6193V22.4119Z" fill="black"/>
<path d="M60.2092 35.9379C57.7893 35.9379 56.1585 35.2802 55.3167 33.9648C54.959 33.4057 54.7381 32.7809 54.6539 32.0903C54.5697 31.3668 54.5276 30.2652 54.5276 28.7853H55.1589C55.3483 30.4296 55.8007 31.7121 56.5162 32.6329C57.2527 33.5208 58.2733 33.9648 59.5779 33.9648C60.7353 33.9648 61.598 33.6523 62.1662 33.0275C62.7554 32.4027 63.05 31.5641 63.05 30.5118C63.05 29.5581 62.8185 28.736 62.3556 28.0454C61.9137 27.3548 61.1982 26.6971 60.2092 26.0723L58.3153 24.8391C57.0528 24.0498 56.1058 23.129 55.4746 22.0767C54.8433 21.0243 54.5276 19.7254 54.5276 18.1798C54.5276 16.1737 55.0116 14.6117 55.9796 13.4936C56.9476 12.3426 58.1996 11.7671 59.7357 11.7671C62.0504 11.7671 63.6287 12.4248 64.4704 13.7402C64.8281 14.2993 65.0491 14.9241 65.1332 15.6147C65.2174 16.3053 65.2595 17.4069 65.2595 18.9197H64.6282C64.4599 17.2754 64.018 16.0093 63.3025 15.1214C62.587 14.2006 61.6085 13.7402 60.367 13.7402C59.378 13.7402 58.5994 14.0691 58.0313 14.7268C57.4842 15.3516 57.2106 16.1737 57.2106 17.1932C57.2106 18.9032 58.0523 20.3009 59.7357 21.3861L61.6296 22.6193C63.0605 23.5401 64.1021 24.5266 64.7545 25.579C65.4068 26.5984 65.7329 27.9138 65.7329 29.5252C65.7329 31.5312 65.2174 33.1097 64.1863 34.2607C63.1552 35.3788 61.8295 35.9379 60.2092 35.9379Z" fill="black"/>
<path d="M43.5923 35.9379C42.919 35.9379 42.2351 35.7241 41.5407 35.2966C40.8463 34.8362 40.2465 34.0963 39.7415 33.0769C39.2575 32.0574 39.0155 30.7091 39.0155 29.0319C39.0155 26.5327 39.752 24.7568 41.225 23.7045C42.7191 22.6522 44.6655 22.126 47.0644 22.126H48.0113C48.0113 18.9032 47.7273 16.6999 47.1591 15.516C46.591 14.3322 45.7703 13.7402 44.6971 13.7402C43.7502 13.7402 42.9926 14.0526 42.4245 14.6775C41.8563 15.3023 41.4565 16.3875 41.225 17.9331H39.8046C39.8046 16.815 39.8467 15.9435 39.9309 15.3187C40.0151 14.661 40.236 14.0526 40.5937 13.4936C40.9725 12.9016 41.5933 12.4741 42.456 12.211C43.3398 11.9151 44.2973 11.7671 45.3284 11.7671C47.0329 11.7671 48.3796 12.4906 49.3686 13.9375C50.3576 15.3516 50.8521 18.0811 50.8521 22.126V35.4446H49.2739L48.1692 33.2248H48.0113C47.6326 33.9812 47.0749 34.6225 46.3384 35.1486C45.6019 35.6748 44.6866 35.9379 43.5923 35.9379ZM45.0127 33.7181C45.7072 33.7181 46.2858 33.455 46.7488 32.9289C47.2117 32.4027 47.6326 31.6792 48.0113 30.7584V24.0991H47.0644C45.5072 24.0991 44.2762 24.5595 43.3714 25.4803C42.4666 26.3682 42.0141 27.5521 42.0141 29.0319C42.0141 30.5447 42.2982 31.7121 42.8664 32.5342C43.4556 33.3235 44.171 33.7181 45.0127 33.7181Z" fill="black"/>
<path d="M26.0712 9.3006C25.5872 9.3006 25.1664 8.98819 24.8086 8.36336C24.472 7.73854 24.3036 6.99862 24.3036 6.1436C24.3036 5.453 24.4299 4.91039 24.6824 4.51577C24.9559 4.12114 25.3137 3.92383 25.7556 3.92383C26.2396 3.92383 26.6499 4.23624 26.9866 4.86107C27.3443 5.48589 27.5232 6.22581 27.5232 7.08083C27.5232 7.77143 27.3864 8.31404 27.1128 8.70866C26.8603 9.10329 26.5131 9.3006 26.0712 9.3006ZM24.8718 18.1797C24.8718 16.5025 24.7245 15.2693 24.4299 14.4801C24.1353 13.6579 23.5461 13.2469 22.6623 13.2469H22.031V12.2603H24.8718C25.6504 12.2603 26.229 12.4247 26.6078 12.7536C27.0076 13.0495 27.2917 13.6086 27.46 14.4307C27.6284 15.2529 27.7126 16.5025 27.7126 18.1797V35.4445H24.8718V18.1797Z" fill="black"/>
<path d="M14.1967 36.2831C13.0393 36.2831 11.903 36.0364 10.7877 35.5431C9.67244 35.0499 8.75708 34.3428 8.04162 33.422C7.34721 32.5012 7 31.4489 7 30.265V24.9869H7.56816C7.92588 28.2755 8.6203 30.6597 9.6514 32.1395C10.6825 33.5865 12.1029 34.3099 13.9126 34.3099C15.0489 34.3099 16.0169 33.866 16.8165 32.9781C17.6372 32.0902 18.0475 30.857 18.0475 29.2785C18.0475 27.8973 17.7739 26.697 17.2268 25.6775C16.6797 24.6581 15.7959 23.5893 14.5754 22.4712L10.693 18.8702C9.34628 17.6206 8.38883 16.3545 7.82067 15.072C7.27356 13.7894 7 12.2274 7 10.3858C7 7.85361 7.55764 5.83115 8.67291 4.31842C9.80922 2.77281 11.2927 2 13.1235 2C14.1967 2 15.2593 2.24664 16.3115 2.73992C17.3636 3.20032 18.2264 3.89091 18.8997 4.8117C19.5941 5.69961 19.9413 6.7355 19.9413 7.91938V13.1975H19.3732C19.0155 9.90895 18.3316 7.55764 17.3215 6.14356C16.3325 4.69661 14.9331 3.97313 13.1235 3.97313C12.1555 3.97313 11.3033 4.43352 10.5668 5.35432C9.83026 6.27511 9.46201 7.47543 9.46201 8.95527C9.46201 10.3036 9.72505 11.4217 10.2511 12.3096C10.7982 13.1975 11.7031 14.2334 12.9656 15.4173L16.848 19.0182C18.279 20.3665 19.289 21.6162 19.8782 22.7672C20.4674 23.9181 20.762 25.3815 20.762 27.1574C20.762 29.9197 20.1728 32.1395 18.9944 33.8167C17.816 35.4609 16.2168 36.2831 14.1967 36.2831Z" fill="black"/>
</svg>
