<svg xmlns="http://www.w3.org/2000/svg" version="1.1" xmlns:xlink="http://www.w3.org/1999/xlink" xmlns:svgjs="http://svgjs.dev/svgjs" width="64" height="65"><svg width="64" height="65" viewBox="0 0 64 65" fill="none" xmlns="http://www.w3.org/2000/svg">
<path d="M54.3922 47.157C54.3922 45.5549 54.2772 44.3769 54.0473 43.623C53.8173 42.8377 53.3575 42.445 52.6677 42.445H52.175V41.5026H54.3922C54.9998 41.5026 55.4597 41.6597 55.7717 41.9738C56.1002 42.288 56.3384 42.7591 56.4862 43.3874H56.6094C56.9543 42.7277 57.3977 42.178 57.9397 41.7382C58.4981 41.267 59.1222 41.0314 59.812 41.0314C61.0437 41.0314 62.0456 41.6597 62.8175 42.9162C63.6058 44.1727 64 46.3716 64 49.5129V63.6488H61.7828V49.5129C61.7828 47.314 61.52 45.712 60.9945 44.7068C60.4853 43.6701 59.8448 43.1518 59.0729 43.1518C58.2024 43.1518 57.3813 43.9843 56.6094 45.6491V63.6488H54.3922V47.157Z" fill="#2082FF"></path>
<path d="M46.5019 64.12C45.385 64.12 44.4407 63.6174 43.6688 62.6121C42.8969 61.5755 42.3138 60.1933 41.9197 58.4656C41.5255 56.7065 41.3284 54.7432 41.3284 52.5757C41.3284 50.4396 41.5255 48.492 41.9197 46.7329C42.3138 44.9738 42.8804 43.5916 43.6195 42.5864C44.375 41.5497 45.2537 41.0314 46.2555 41.0314C47.9143 41.0314 49.1461 41.9267 49.9508 43.7172C50.772 45.4764 51.1826 48.0365 51.1826 51.3977L51.1333 53.2825H43.6688C43.6688 55.9212 43.9644 58.073 44.5557 59.7379C45.1469 61.4027 45.9599 62.2352 46.9946 62.2352C47.7665 62.2352 48.4152 61.9211 48.9408 61.2928C49.4828 60.6645 49.9837 59.7221 50.4435 58.4656L50.9362 59.1724C50.3943 60.9001 49.762 62.1567 49.0393 62.942C48.3167 63.7273 47.4709 64.12 46.5019 64.12ZM48.8422 51.3977C48.8422 48.6334 48.6287 46.5287 48.2017 45.0837C47.7747 43.6387 47.126 42.9162 46.2555 42.9162C45.7628 42.9162 45.3194 43.2932 44.9252 44.0471C44.531 44.7696 44.219 45.7748 43.989 47.0627C43.7755 48.3507 43.6688 49.7957 43.6688 51.3977H48.8422Z" fill="#2082FF"></path>
<path d="M37.2366 38.6755C36.8589 38.6755 36.5304 38.3771 36.2512 37.7802C35.9884 37.1834 35.857 36.4766 35.857 35.6599C35.857 35.0002 35.9556 34.4819 36.1526 34.1049C36.3661 33.728 36.6453 33.5395 36.9902 33.5395C37.368 33.5395 37.6883 33.8379 37.951 34.4348C38.2302 35.0316 38.3698 35.7384 38.3698 36.5551C38.3698 37.2148 38.2631 37.7331 38.0496 38.1101C37.8525 38.487 37.5815 38.6755 37.2366 38.6755ZM36.3004 47.157C36.3004 45.5549 36.1855 44.377 35.9556 43.6231C35.7256 42.8377 35.2658 42.4451 34.576 42.4451H34.0833V41.5027H36.3004C36.9081 41.5027 37.3598 41.6597 37.6554 41.9739C37.9675 42.2566 38.1892 42.7906 38.3206 43.5759C38.4519 44.3613 38.5176 45.5549 38.5176 47.157V63.6488H36.3004V47.157Z" fill="#2082FF"></path>
<path d="M19.9955 19.6178C19.9955 16.887 19.8478 14.8791 19.5523 13.594C19.2569 12.2554 18.6659 11.5861 17.7795 11.5861H17.1463V9.97974H19.9955C20.7764 9.97974 21.3568 10.2475 21.7367 10.7829C22.1377 11.2648 22.4226 12.1751 22.5915 13.5137C22.7603 14.8523 22.8447 16.887 22.8447 19.6178V59.7764H34.0833V62.9891H19.9955V19.6178Z" fill="#2082FF"></path>
<path d="M41.5291 32.5382C39.6404 32.5382 38.3676 31.9099 37.7106 30.6534C37.4314 30.1194 37.259 29.5225 37.1933 28.8629C37.1276 28.1718 37.0948 27.1194 37.0948 25.7059H37.5875C37.7353 27.2765 38.0884 28.5016 38.6468 29.3812C39.2216 30.2293 40.0182 30.6534 41.0364 30.6534C41.9397 30.6534 42.6131 30.355 43.0566 29.7581C43.5164 29.1613 43.7463 28.3602 43.7463 27.355C43.7463 26.4441 43.5657 25.6587 43.2044 24.9991C42.8595 24.3394 42.3011 23.7111 41.5291 23.1143L40.051 21.9363C39.0656 21.1824 38.3265 20.3028 37.8338 19.2976C37.3411 18.2924 37.0948 17.0516 37.0948 15.5752C37.0948 13.659 37.4725 12.1669 38.228 11.0988C38.9835 9.99937 39.9607 9.44965 41.1596 9.44965C42.9662 9.44965 44.198 10.0779 44.8549 11.3344C45.1341 11.8684 45.3066 12.4653 45.3723 13.125C45.438 13.7846 45.4708 14.837 45.4708 16.282H44.9781C44.8467 14.7113 44.5018 13.5019 43.9434 12.6538C43.385 11.7742 42.6213 11.3344 41.6523 11.3344C40.8804 11.3344 40.2727 11.6486 39.8293 12.2768C39.4023 12.8737 39.1888 13.659 39.1888 14.6328C39.1888 16.2663 39.8457 17.6013 41.1596 18.6379L42.6377 19.8159C43.7546 20.6955 44.5675 21.6379 45.0767 22.6431C45.5858 23.6169 45.8404 24.8734 45.8404 26.4126C45.8404 28.3288 45.438 29.8367 44.6332 30.9361C43.8285 32.0042 42.7938 32.5382 41.5291 32.5382Z" fill="#2082FF"></path>
<path d="M28.5599 32.5382C28.0343 32.5382 27.5006 32.334 26.9586 31.9256C26.4166 31.4858 25.9485 30.779 25.5543 29.8052C25.1766 28.8314 24.9877 27.5435 24.9877 25.9415C24.9877 23.5541 25.5626 21.8578 26.7122 20.8526C27.8783 19.8473 29.3975 19.3447 31.2698 19.3447H32.0089C32.0089 16.2663 31.7871 14.1616 31.3437 13.0307C30.9003 11.8999 30.2597 11.3344 29.4221 11.3344C28.6831 11.3344 28.0918 11.6328 27.6484 12.2297C27.2049 12.8265 26.8929 13.8632 26.7122 15.3396H25.6036C25.6036 14.2715 25.6365 13.4391 25.7022 12.8422C25.7679 12.214 25.9403 11.6328 26.2195 11.0988C26.5151 10.5334 26.9996 10.125 27.673 9.87372C28.3628 9.591 29.1101 9.44965 29.9148 9.44965C31.2452 9.44965 32.2963 10.1407 33.0682 11.5229C33.8401 12.8737 34.2261 15.4809 34.2261 19.3447V32.067H32.9943L32.132 29.9466H32.0089C31.7132 30.6691 31.278 31.2817 30.7032 31.7843C30.1283 32.2869 29.4139 32.5382 28.5599 32.5382ZM29.6685 30.4178C30.2105 30.4178 30.6621 30.1665 31.0234 29.6639C31.3848 29.1613 31.7132 28.4702 32.0089 27.5906V21.2295H31.2698C30.0544 21.2295 29.0937 21.6693 28.3874 22.5489C27.6812 23.397 27.3281 24.5279 27.3281 25.9415C27.3281 27.3864 27.5498 28.5016 27.9933 29.2869C28.4531 30.0408 29.0115 30.4178 29.6685 30.4178Z" fill="#2082FF"></path>
<path d="M14.8849 7.09366C14.5071 7.09366 14.1786 6.79524 13.8994 6.19839C13.6367 5.60155 13.5053 4.89476 13.5053 4.07802C13.5053 3.41835 13.6038 2.90003 13.8009 2.52308C14.0144 2.14612 14.2936 1.95764 14.6385 1.95764C15.0162 1.95764 15.3365 2.25607 15.5993 2.85291C15.8785 3.44976 16.0181 4.15655 16.0181 4.97329C16.0181 5.63296 15.9113 6.15127 15.6978 6.52823C15.5007 6.90518 15.2298 7.09366 14.8849 7.09366ZM13.9487 15.5752C13.9487 13.9731 13.8337 12.7951 13.6038 12.0412C13.3739 11.2559 12.914 10.8632 12.2242 10.8632H11.7315V9.92083H13.9487C14.5564 9.92083 15.008 10.0779 15.3037 10.392C15.6157 10.6747 15.8374 11.2088 15.9688 11.9941C16.1002 12.7794 16.1659 13.9731 16.1659 15.5752V32.067H13.9487V15.5752Z" fill="#2082FF"></path>
<path d="M5.6169 32.868C4.7136 32.868 3.82672 32.6324 2.95626 32.1612C2.08581 31.69 1.37138 31.0146 0.812972 30.1351C0.270991 29.2555 0 28.2503 0 27.1194V22.0777H0.443439C0.722642 25.219 1.26462 27.4964 2.06938 28.91C2.87414 30.2921 3.98274 30.9832 5.39518 30.9832C6.28206 30.9832 7.03755 30.5592 7.66165 29.711C8.30217 28.8629 8.62243 27.6849 8.62243 26.177C8.62243 24.8577 8.40892 23.7111 7.98191 22.7373C7.55489 21.7635 6.8651 20.7426 5.91252 19.6746L2.88236 16.2348C1.83124 15.0412 1.08396 13.8318 0.640524 12.6066C0.213508 11.3815 0 9.88943 0 8.1303C0 5.7115 0.435227 3.7796 1.30568 2.33461C2.19256 0.8582 3.35043 0.119995 4.77929 0.119995C5.6169 0.119995 6.44629 0.355592 7.26748 0.826786C8.08866 1.26657 8.76203 1.92624 9.28759 2.8058C9.82957 3.65395 10.1006 4.64346 10.1006 5.77433V10.8161H9.65712C9.37792 7.67481 8.84415 5.42879 8.05581 4.07803C7.2839 2.69586 6.19173 2.00477 4.77929 2.00477C4.0238 2.00477 3.35864 2.44456 2.78381 3.32412C2.20898 4.20368 1.92157 5.35025 1.92157 6.76384C1.92157 8.05177 2.12687 9.11981 2.53746 9.96796C2.96447 10.8161 3.67069 11.8056 4.65611 12.9365L7.68628 16.3762C8.80309 17.6641 9.59143 18.8578 10.0513 19.9573C10.5112 21.0567 10.7411 22.4546 10.7411 24.1509C10.7411 26.7896 10.2812 28.91 9.3615 30.512C8.44177 32.0827 7.19357 32.868 5.6169 32.868Z" fill="#2082FF"></path>
</svg><style>@media (prefers-color-scheme: light) { :root { filter: none; } }
@media (prefers-color-scheme: dark) { :root { filter: none; } }
</style></svg>